<?xml version="1.0" encoding="UTF-8" standalone="no"?>
<svg
   role="img"
   viewBox="0 0 24 24"
   version="1.1"
   id="svg1"
   sodipodi:docname="kannuclear.svg"
   inkscape:version="1.3.2 (091e20e, 2023-11-25, custom)"
   xmlns:inkscape="http://www.inkscape.org/namespaces/inkscape"
   xmlns:sodipodi="http://sodipodi.sourceforge.net/DTD/sodipodi-0.dtd"
   xmlns="http://www.w3.org/2000/svg"
   xmlns:svg="http://www.w3.org/2000/svg"
   xmlns:rdf="http://www.w3.org/1999/02/22-rdf-syntax-ns#"
   xmlns:cc="http://creativecommons.org/ns#"
   xmlns:dc="http://purl.org/dc/elements/1.1/">
  <defs
     id="defs1" />
  <sodipodi:namedview
     id="namedview1"
     pagecolor="#ffffff"
     bordercolor="#000000"
     borderopacity="0.25"
     inkscape:showpageshadow="2"
     inkscape:pageopacity="0.0"
     inkscape:pagecheckerboard="0"
     inkscape:deskcolor="#d1d1d1"
     inkscape:zoom="11.446291"
     inkscape:cx="9.1732772"
     inkscape:cy="7.2949395"
     inkscape:window-width="1920"
     inkscape:window-height="991"
     inkscape:window-x="-9"
     inkscape:window-y="-9"
     inkscape:window-maximized="1"
     inkscape:current-layer="svg1" />
  <title
     id="title1">Nucleo</title>
  <path
     style="fill:#001c87;fill-opacity:1;stroke-width:1.12557"
     d="M 6.4332522,19.853445 V 16.153041 L 6.1128103,15.797857 C 2.6393538,11.947866 0.83842723,7.5023048 1.5336626,4.4942919 1.8116893,3.2913906 2.5547296,2.3192296 3.5910415,1.8025284 4.2863654,1.4558319 4.840078,1.3196837 5.7227026,1.2783864 L 6.4332522,1.2451852 V 0.91860229 0.59200935 l 2.2675722,0.0145177 2.2675726,0.0145177 0.287525,1.11458955 c 0.283338,1.0984274 0.29026,1.1161208 0.477104,1.21938 0.714362,0.3947693 1.577343,0.9336896 2.144841,1.3394102 l 0.664061,0.4747518 0.01463,-2.0880004 0.01463,-2.08799944 h 1.58763 1.587631 V 4.1284712 7.6637551 l 0.506323,0.5747803 c 1.952775,2.2167756 3.485826,4.8514506 4.144124,7.1219946 0.293175,1.01124 0.384447,1.638067 0.38151,2.620313 -0.0023,0.743041 -0.02251,0.939576 -0.145176,1.405717 -0.218629,0.83079 -0.524231,1.373019 -1.093406,1.939965 -0.807603,0.804452 -1.694019,1.155358 -3.054961,1.209374 l -0.738413,0.02926 v 0.494291 0.494303 h -1.836931 -1.836932 l -0.05459,-0.208995 c -0.03005,-0.114943 -0.15534,-0.594557 -0.278454,-1.065808 -0.123114,-0.471262 -0.231168,-0.862306 -0.240117,-0.868991 -0.009,-0.0068 -0.3799,-0.199214 -0.824352,-0.427839 -0.812736,-0.418078 -1.77667,-1.009517 -2.577486,-1.581484 L 9.6656865,19.092164 v 2.230789 2.230801 H 8.0495236 6.4333599 Z M 19.50186,21.912293 c 0.923469,-0.245666 1.780991,-0.863995 2.216685,-1.598369 1.276739,-2.151932 0.367407,-5.998456 -2.311637,-9.778325 -0.60283,-0.8505217 -1.550037,-2.0287729 -1.630965,-2.0287729 -0.01621,0 -0.0296,3.0506269 -0.0296,6.7791709 v 6.779158 l 0.710546,-0.03196 c 0.390807,-0.01756 0.861023,-0.07204 1.044928,-0.12092 z M 11.551382,13.797821 C 10.567043,9.9835657 9.7400465,6.8389766 9.7136183,6.8098586 9.6867201,6.780147 9.6655571,9.3186947 9.6655571,12.588087 v 5.831164 l 0.2368521,0.191582 c 0.3443208,0.278521 1.1129018,0.813761 1.6579558,1.154615 0.535217,0.334709 1.741653,1.006446 1.765234,0.982876 0.009,-0.009 -0.789888,-3.136237 -1.774238,-6.950503 z M 6.4332522,8.5540541 V 1.7465205 L 5.7784325,1.7805148 C 4.5237526,1.8455731 3.675725,2.1773436 2.976469,2.8766004 2.2239233,3.6291411 1.9013643,4.5335089 1.9025597,5.8875511 c 0.002,2.3454836 1.1929752,5.2228529 3.3214749,8.0250689 0.4444358,0.585113 1.153941,1.448971 1.1900599,1.448971 0.010135,0 0.019134,-3.063379 0.019134,-6.8075227 z M 14.569785,9.8997446 V 5.4410374 L 13.942834,4.9751105 C 13.289546,4.4896319 12.601016,4.0339926 12.039123,3.7153114 11.71245,3.5300434 11.710064,3.529616 11.745756,3.6630844 c 0.01981,0.074066 0.643114,2.5107507 1.385141,5.414964 0.74204,2.9042146 1.369351,5.2803816 1.394023,5.2803816 0.02465,0 0.04491,-2.006409 0.04491,-4.4586971 z"
     id="path1-0" />
  <metadata
     id="metadata1">
    <rdf:RDF>
      <cc:Work
         rdf:about="">
        <dc:title>Nucleo</dc:title>
      </cc:Work>
    </rdf:RDF>
  </metadata>
</svg>
